<svg xmlns="http://www.w3.org/2000/svg" width="246" height="21" viewBox="0 0 246 21" fill="none">
    <path d="M1.42629 15.6169L1.36146 13.7239L15.8188 0.147887H17.8286L7.71491 9.70141L6.77486 10.6183L1.42629 15.6169ZM0 20.8521V0.147887H1.6532V20.8521H0ZM16.4995 20.8521L6.28863 10.2042L7.42317 9.10986L18.5093 20.8521H16.4995Z" fill="white"/>
    <path d="M32.5691 21C30.8835 21 29.3167 20.7437 27.8688 20.231C26.4425 19.6986 25.1891 18.9592 24.1086 18.0127C23.0497 17.0465 22.2285 15.9324 21.645 14.6704C21.0615 13.3887 20.7698 11.9986 20.7698 10.5C20.7698 9.00141 21.0615 7.62113 21.645 6.35916C22.2285 5.07747 23.0497 3.96338 24.1086 3.0169C25.1891 2.0507 26.4425 1.31127 27.8688 0.798592C29.3167 0.266197 30.8835 0 32.5691 0C34.2547 0 35.8106 0.266197 37.2369 0.798592C38.6848 1.31127 39.9382 2.04085 40.9971 2.98732C42.056 3.9338 42.8772 5.04789 43.4607 6.32958C44.0658 7.59155 44.3684 8.98169 44.3684 10.5C44.3684 12.0183 44.0658 13.4183 43.4607 14.7C42.8772 15.962 42.056 17.0662 40.9971 18.0127C39.9382 18.9592 38.6848 19.6986 37.2369 20.231C35.8106 20.7437 34.2547 21 32.5691 21ZM32.5691 19.6099C34.017 19.6099 35.3568 19.3831 36.5886 18.9296C37.8204 18.4761 38.8901 17.8352 39.7978 17.007C40.7054 16.1789 41.4077 15.2127 41.9048 14.1085C42.4234 13.0042 42.6827 11.8014 42.6827 10.5C42.6827 9.17887 42.4234 7.97606 41.9048 6.89155C41.4077 5.78732 40.7054 4.82113 39.7978 3.99296C38.8901 3.16479 37.8204 2.52394 36.5886 2.07042C35.3568 1.6169 34.017 1.39014 32.5691 1.39014C31.1212 1.39014 29.7813 1.6169 28.5495 2.07042C27.3177 2.52394 26.2372 3.16479 25.308 3.99296C24.4003 4.82113 23.6872 5.78732 23.1685 6.89155C22.6715 7.97606 22.423 9.17887 22.423 10.5C22.423 11.8014 22.6715 13.0042 23.1685 14.1085C23.6872 15.2127 24.4003 16.1789 25.308 17.007C26.2372 17.8352 27.3177 18.4761 28.5495 18.9296C29.7813 19.3831 31.1212 19.6099 32.5691 19.6099Z" fill="white"/>
    <path d="M51.0748 20.8521V0.147887H59.2112C61.1129 0.147887 62.7445 0.423943 64.1059 0.976056C65.4674 1.52817 66.5155 2.32676 67.2502 3.37183C67.985 4.39718 68.3524 5.6493 68.3524 7.12817C68.3524 8.56761 67.985 9.80986 67.2502 10.8549C66.5155 11.8803 65.4674 12.6789 64.1059 13.2507C62.7445 13.8028 61.1129 14.0789 59.2112 14.0789H51.9825L52.728 13.369V20.8521H51.0748ZM66.8288 20.8521L60.9292 13.3394H62.8093L68.7089 20.8521H66.8288ZM52.728 13.4577L51.9825 12.7479H59.2112C61.6531 12.7479 63.5008 12.2549 64.7542 11.269C66.0292 10.2831 66.6667 8.90282 66.6667 7.12817C66.6667 5.3338 66.0292 3.95352 64.7542 2.98732C63.5008 2.00141 61.6531 1.50845 59.2112 1.50845H51.9825L52.728 0.769015V13.4577Z" fill="white"/>
    <path d="M75.3777 20.8521V0.147887H76.7715L92.9469 18.9887H92.2014V0.147887H93.8546V20.8521H92.4931L76.2853 2.01127H77.0309V20.8521H75.3777Z" fill="white"/>
    <path d="M102.751 20.8521V0.147887H104.404V20.8521H102.751Z" fill="white"/>
    <path d="M118.632 20.8521V13.3394L119.021 14.3155L109.491 0.147887H111.306L119.961 13.0141H119.054L127.709 0.147887H129.427L119.896 14.3155L120.285 13.3394V20.8521H118.632Z" fill="white"/>
    <path d="M129.394 20.8521L139.832 0.147887H141.485L151.923 20.8521H150.14L140.285 1.09437H140.999L131.177 20.8521H129.394ZM133.219 15.0254L133.77 13.7535H147.352L147.903 15.0254H133.219Z" fill="white"/>
    <path d="M162.979 21C161.293 21 159.694 20.7437 158.181 20.231C156.69 19.6986 155.534 19.0183 154.713 18.1901L155.458 17.0662C156.236 17.7958 157.295 18.4169 158.635 18.9296C159.997 19.4225 161.434 19.669 162.946 19.669C164.459 19.669 165.691 19.4915 166.642 19.1366C167.614 18.762 168.327 18.269 168.781 17.6577C169.257 17.0465 169.494 16.3662 169.494 15.6169C169.494 14.7296 169.235 14.0197 168.716 13.4873C168.198 12.9549 167.517 12.531 166.674 12.2155C165.831 11.9 164.913 11.6338 163.919 11.4169C162.925 11.2 161.92 10.9732 160.904 10.7366C159.889 10.4803 158.959 10.1549 158.116 9.76056C157.274 9.3662 156.593 8.8338 156.074 8.16338C155.577 7.47324 155.329 6.58592 155.329 5.50141C155.329 4.51549 155.61 3.60845 156.172 2.78028C156.733 1.95211 157.609 1.28169 158.797 0.769015C159.986 0.256338 161.509 0 163.368 0C164.621 0 165.853 0.167606 167.063 0.502817C168.295 0.838029 169.343 1.29155 170.207 1.86338L169.592 3.07606C168.641 2.48451 167.614 2.0507 166.512 1.77465C165.432 1.47887 164.383 1.33099 163.368 1.33099C161.92 1.33099 160.721 1.51831 159.77 1.89296C158.819 2.26761 158.116 2.77042 157.663 3.40141C157.209 4.01268 156.982 4.70282 156.982 5.47183C156.982 6.35915 157.23 7.06901 157.727 7.60141C158.246 8.1338 158.927 8.55775 159.77 8.87324C160.612 9.18873 161.542 9.45493 162.557 9.67183C163.573 9.88873 164.578 10.1254 165.572 10.3817C166.566 10.6183 167.485 10.9338 168.327 11.3282C169.17 11.7225 169.851 12.2549 170.37 12.9254C170.888 13.5958 171.148 14.4634 171.148 15.5282C171.148 16.4944 170.856 17.4014 170.272 18.2493C169.689 19.0775 168.792 19.7479 167.582 20.2606C166.393 20.7535 164.859 21 162.979 21Z" fill="white"/>
    <path d="M187.368 21C185.682 21 184.115 20.7437 182.667 20.231C181.241 19.6986 179.988 18.9592 178.907 18.0127C177.848 17.0465 177.027 15.9324 176.443 14.6704C175.86 13.3887 175.568 11.9986 175.568 10.5C175.568 9.00141 175.86 7.62113 176.443 6.35916C177.027 5.07747 177.848 3.96338 178.907 3.0169C179.988 2.0507 181.241 1.31127 182.667 0.798592C184.115 0.266197 185.682 0 187.368 0C189.053 0 190.609 0.266197 192.035 0.798592C193.483 1.31127 194.737 2.04085 195.796 2.98732C196.854 3.9338 197.676 5.04789 198.259 6.32958C198.864 7.59155 199.167 8.98169 199.167 10.5C199.167 12.0183 198.864 13.4183 198.259 14.7C197.676 15.962 196.854 17.0662 195.796 18.0127C194.737 18.9592 193.483 19.6986 192.035 20.231C190.609 20.7437 189.053 21 187.368 21ZM187.368 19.6099C188.815 19.6099 190.155 19.3831 191.387 18.9296C192.619 18.4761 193.689 17.8352 194.596 17.007C195.504 16.1789 196.206 15.2127 196.703 14.1085C197.222 13.0042 197.481 11.8014 197.481 10.5C197.481 9.17887 197.222 7.97606 196.703 6.89155C196.206 5.78732 195.504 4.82113 194.596 3.99296C193.689 3.16479 192.619 2.52394 191.387 2.07042C190.155 1.6169 188.815 1.39014 187.368 1.39014C185.92 1.39014 184.58 1.6169 183.348 2.07042C182.116 2.52394 181.036 3.16479 180.106 3.99296C179.199 4.82113 178.486 5.78732 177.967 6.89155C177.47 7.97606 177.221 9.17887 177.221 10.5C177.221 11.8014 177.47 13.0042 177.967 14.1085C178.486 15.2127 179.199 16.1789 180.106 17.007C181.036 17.8352 182.116 18.4761 183.348 18.9296C184.58 19.3831 185.92 19.6099 187.368 19.6099Z" fill="white"/>
    <path d="M211.562 20.8521L201.448 0.147887H203.264L212.923 19.9352H211.919L221.611 0.147887H223.329L213.215 20.8521H211.562Z" fill="white"/>
    <path d="M223.471 20.8521L233.909 0.147887H235.562L246 20.8521H244.217L234.363 1.09437H235.076L225.254 20.8521H223.471ZM227.296 15.0254L227.847 13.7535H241.429L241.98 15.0254H227.296Z" fill="white"/>
</svg>