<svg xmlns="http://www.w3.org/2000/svg" width="25" height="25" viewBox="0 0 25 25" fill="none">
    <path d="M7.71547 0.546875H17.7355C21.5527 0.546875 24.6541 3.7047 24.6541 7.59126V17.7935C24.6541 19.6618 23.9252 21.4535 22.6277 22.7746C21.3302 24.0957 19.5704 24.8379 17.7355 24.8379H7.71547C3.89831 24.8379 0.796875 21.68 0.796875 17.7935V7.59126C0.796875 5.72297 1.5258 3.93121 2.82328 2.61013C4.12077 1.28905 5.88054 0.546875 7.71547 0.546875ZM7.4769 2.97597C6.33798 2.97597 5.24571 3.43663 4.44037 4.25661C3.63503 5.07659 3.1826 6.18872 3.1826 7.34835V18.0364C3.1826 20.4533 5.1031 22.4088 7.4769 22.4088H17.9741C19.113 22.4088 20.2053 21.9481 21.0106 21.1281C21.8159 20.3081 22.2684 19.196 22.2684 18.0364V7.34835C22.2684 4.9314 20.3479 2.97597 17.9741 2.97597H7.4769ZM18.988 4.7978C19.3835 4.7978 19.7627 4.95775 20.0424 5.24246C20.322 5.52718 20.4791 5.91334 20.4791 6.31599C20.4791 6.71863 20.322 7.10479 20.0424 7.38951C19.7627 7.67422 19.3835 7.83417 18.988 7.83417C18.5926 7.83417 18.2133 7.67422 17.9337 7.38951C17.654 7.10479 17.4969 6.71863 17.4969 6.31599C17.4969 5.91334 17.654 5.52718 17.9337 5.24246C18.2133 4.95775 18.5926 4.7978 18.988 4.7978ZM12.7255 6.61962C14.3073 6.61962 15.8244 7.25943 16.9429 8.39829C18.0614 9.53715 18.6898 11.0818 18.6898 12.6924C18.6898 14.303 18.0614 15.8476 16.9429 16.9865C15.8244 18.1253 14.3073 18.7651 12.7255 18.7651C11.1437 18.7651 9.62661 18.1253 8.50809 16.9865C7.38956 15.8476 6.76118 14.303 6.76118 12.6924C6.76118 11.0818 7.38956 9.53715 8.50809 8.39829C9.62661 7.25943 11.1437 6.61962 12.7255 6.61962ZM12.7255 9.04872C11.7764 9.04872 10.8662 9.4326 10.195 10.1159C9.52393 10.7992 9.1469 11.726 9.1469 12.6924C9.1469 13.6587 9.52393 14.5855 10.195 15.2688C10.8662 15.9521 11.7764 16.336 12.7255 16.336C13.6746 16.336 14.5848 15.9521 15.2559 15.2688C15.927 14.5855 16.3041 13.6587 16.3041 12.6924C16.3041 11.726 15.927 10.7992 15.2559 10.1159C14.5848 9.4326 13.6746 9.04872 12.7255 9.04872Z" fill="white"/>
</svg>