<svg xmlns="http://www.w3.org/2000/svg" width="22" height="23" viewBox="0 0 22 23" fill="none">
    <path d="M18.3282 4.17072C17.3395 3.15393 16.1619 2.34774 14.8641 1.79918C13.5662 1.25062 12.1741 0.970667 10.7689 0.975651C4.88105 0.975651 0.0823624 5.86158 0.0823624 11.8565C0.0823624 13.7779 0.578406 15.6444 1.50579 17.2914L-0.00390625 22.9349L5.65746 21.4197C7.22108 22.2871 8.9788 22.7483 10.7689 22.7483C16.6567 22.7483 21.4554 17.8623 21.4554 11.8674C21.4554 8.95784 20.3447 6.22391 18.3282 4.17072ZM10.7689 20.9037C9.17291 20.9037 7.60929 20.4645 6.23978 19.641L5.91627 19.4434L2.5518 20.3437L3.44683 17.0059L3.23116 16.6655C2.34448 15.2239 1.87366 13.5575 1.87243 11.8565C1.87243 6.87171 5.86235 2.80925 10.7581 2.80925C13.1305 2.80925 15.3627 3.7535 17.0341 5.46632C17.8617 6.30512 18.5176 7.30284 18.9637 8.40164C19.4098 9.50044 19.6373 10.6785 19.633 11.8674C19.6545 16.8522 15.6646 20.9037 10.7689 20.9037ZM15.643 14.1402C15.3735 14.0085 14.0579 13.3497 13.8206 13.2509C13.5726 13.163 13.4001 13.1191 13.2167 13.3826C13.0334 13.6571 12.5266 14.272 12.3756 14.4477C12.2247 14.6343 12.0629 14.6563 11.7933 14.5135C11.5237 14.3818 10.661 14.0853 9.64738 13.163C8.8494 12.4384 8.321 11.549 8.15925 11.2745C8.00828 11.0001 8.13768 10.8573 8.27787 10.7146C8.39649 10.5938 8.54746 10.3962 8.67686 10.2425C8.80627 10.0887 8.86018 9.96797 8.94645 9.79229C9.03272 9.60564 8.98959 9.45192 8.92488 9.32017C8.86018 9.18841 8.321 7.8489 8.10533 7.29992C7.88966 6.77289 7.66321 6.83877 7.50145 6.82779H6.98384C6.80052 6.82779 6.52015 6.89367 6.27213 7.16816C6.03489 7.44265 5.34474 8.10143 5.34474 9.44094C5.34474 10.7805 6.30448 12.0761 6.43388 12.2517C6.56328 12.4384 8.321 15.1833 10.9953 16.3581C11.6316 16.6436 12.1276 16.8083 12.5158 16.9291C13.152 17.1377 13.7344 17.1047 14.198 17.0388C14.7157 16.962 15.7832 16.3801 15.9989 15.7432C16.2254 15.1064 16.2254 14.5684 16.1499 14.4477C16.0744 14.3269 15.9126 14.272 15.643 14.1402Z" fill="white"/>
</svg>