<svg width="556" height="207" viewBox="0 0 556 207" fill="none" xmlns="http://www.w3.org/2000/svg">
<g clip-path="url(#clip0_2011_43)">
<g filter="url(#filter0_b_2011_43)">
<path fill-rule="evenodd" clip-rule="evenodd" d="M81.0542 53.2969C81.0542 42.2512 90.0085 33.2969 101.054 33.2969H535.251C546.297 33.2969 555.251 42.2512 555.251 53.2969V134.605C555.251 145.65 546.297 154.605 535.251 154.605H405.958C394.912 154.605 385.958 163.559 385.958 174.605V186.756C385.958 197.802 377.003 206.756 365.958 206.756H20C8.95428 206.756 0 197.802 0 186.756V157.189C0 146.143 8.95429 137.189 20 137.189H61.0542C72.0998 137.189 81.0542 128.235 81.0542 117.189V53.2969Z" fill="white" fill-opacity="0.2"/>
</g>
<rect x="112.846" y="0.373047" width="123.648" height="123.648" rx="20" fill="white"/>
<path fill-rule="evenodd" clip-rule="evenodd" d="M173.899 28C169.349 27.994 164.949 29.6158 161.511 32.5666C158.073 35.5174 155.828 39.5984 155.191 44.0577C154.553 48.517 155.565 53.0541 158.041 56.833C160.517 60.612 164.289 63.3783 168.663 64.6221C162.447 65.3691 157.117 67.543 153.098 71.4633C147.987 76.4449 145.399 83.8682 145.399 93.553C145.399 94.202 145.66 94.8244 146.124 95.2833C146.587 95.7422 147.216 96 147.872 96C148.528 96 149.157 95.7422 149.62 95.2833C150.084 94.8244 150.345 94.202 150.345 93.553C150.345 84.6924 152.703 78.7167 156.57 74.9458C160.443 71.1697 166.232 69.2121 173.899 69.2121C181.567 69.2121 187.356 71.1697 191.234 74.9458C195.096 78.7218 197.454 84.6924 197.454 93.553C197.454 94.202 197.715 94.8244 198.178 95.2833C198.642 95.7422 199.271 96 199.927 96C200.583 96 201.211 95.7422 201.675 95.2833C202.139 94.8244 202.399 94.202 202.399 93.553C202.399 83.8682 199.812 76.45 194.695 71.4633C190.687 67.5482 185.351 65.3691 179.136 64.6221C183.495 63.3643 187.251 60.5938 189.713 56.8185C192.176 53.0431 193.182 48.5159 192.545 44.0665C191.909 39.6171 189.674 35.5437 186.249 32.5929C182.825 29.6421 178.44 28.0115 173.899 28ZM159.975 46.6743C159.975 43.0195 161.442 39.5144 164.053 36.9301C166.665 34.3458 170.206 32.894 173.899 32.894C177.592 32.894 181.134 34.3458 183.746 36.9301C186.357 39.5144 187.824 43.0195 187.824 46.6743C187.824 50.329 186.357 53.8341 183.746 56.4184C181.134 59.0027 177.592 60.4546 173.899 60.4546C170.206 60.4546 166.665 59.0027 164.053 56.4184C161.442 53.8341 159.975 50.329 159.975 46.6743Z" fill="black"/>
</g>
<defs>
<filter id="filter0_b_2011_43" x="-30" y="3.29688" width="615.251" height="233.459" filterUnits="userSpaceOnUse" color-interpolation-filters="sRGB">
<feFlood flood-opacity="0" result="BackgroundImageFix"/>
<feGaussianBlur in="BackgroundImageFix" stdDeviation="15"/>
<feComposite in2="SourceAlpha" operator="in" result="effect1_backgroundBlur_2011_43"/>
<feBlend mode="normal" in="SourceGraphic" in2="effect1_backgroundBlur_2011_43" result="shape"/>
</filter>
<clipPath id="clip0_2011_43">
<rect width="555.251" height="206.383" fill="white" transform="translate(0 0.373047)"/>
</clipPath>
</defs>
</svg>
