<svg xmlns="http://www.w3.org/2000/svg" width="1642" height="16" viewBox="0 0 1642 16" fill="none">
    <path d="M0.292893 7.24211C-0.0976311 7.63264 -0.0976311 8.2658 0.292893 8.65633L6.65685 15.0203C7.04738 15.4108 7.68054 15.4108 8.07107 15.0203C8.46159 14.6298 8.46159 13.9966 8.07107 13.6061L2.41421 7.94922L8.07107 2.29237C8.46159 1.90184 8.46159 1.26868 8.07107 0.878152C7.68054 0.487627 7.04738 0.487627 6.65685 0.878151L0.292893 7.24211ZM1641.71 8.65647C1642.1 8.26594 1642.1 7.63278 1641.71 7.24226L1635.34 0.878294C1634.95 0.487769 1634.32 0.487769 1633.93 0.878294C1633.54 1.26882 1633.54 1.90198 1633.93 2.29251L1639.59 7.94936L1633.93 13.6062C1633.54 13.9967 1633.54 14.6299 1633.93 15.0204C1634.32 15.411 1634.95 15.411 1635.34 15.0204L1641.71 8.65647ZM1 8.94922L1641 8.94936L1641 6.94936L1 6.94922L1 8.94922Z" fill="white"/>
</svg>